<svg width="115" height="44" viewBox="0 0 115 44" fill="none" xmlns="http://www.w3.org/2000/svg">
<path d="M78.968 21.248V31.616C78.968 32.752 79.264 33.624 79.856 34.232C80.448 34.824 81.28 35.12 82.352 35.12C83.44 35.12 84.28 34.824 84.872 34.232C85.464 33.624 85.76 32.752 85.76 31.616V21.248H89.144V31.592C89.144 33.016 88.832 34.224 88.208 35.216C87.6 36.192 86.776 36.928 85.736 37.424C84.712 37.92 83.568 38.168 82.304 38.168C81.056 38.168 79.92 37.92 78.896 37.424C77.888 36.928 77.088 36.192 76.496 35.216C75.904 34.224 75.608 33.016 75.608 31.592V21.248H78.968ZM102.422 38L98.7984 32.36L95.5104 38H91.7184L96.9984 29.552L91.6464 21.248H95.5104L99.1344 26.864L102.398 21.248H106.19L100.934 29.672L106.286 38H102.422Z" fill="white"/>
<path d="M0.594 15.014C0.594 13.982 0.804 13.082 1.224 12.314C1.644 11.534 2.226 10.934 2.97 10.514C3.714 10.082 4.566 9.866 5.526 9.866C6.762 9.866 7.782 10.178 8.586 10.802C9.402 11.414 9.948 12.278 10.224 13.394H7.506C7.362 12.962 7.116 12.626 6.768 12.386C6.432 12.134 6.012 12.008 5.508 12.008C4.788 12.008 4.218 12.272 3.798 12.8C3.378 13.316 3.168 14.054 3.168 15.014C3.168 15.962 3.378 16.7 3.798 17.228C4.218 17.744 4.788 18.002 5.508 18.002C6.528 18.002 7.194 17.546 7.506 16.634H10.224C9.948 17.714 9.402 18.572 8.586 19.208C7.77 19.844 6.75 20.162 5.526 20.162C4.566 20.162 3.714 19.952 2.97 19.532C2.226 19.1 1.644 18.5 1.224 17.732C0.804 16.952 0.594 16.046 0.594 15.014ZM16.4981 20.162C15.5381 20.162 14.6741 19.952 13.9061 19.532C13.1381 19.1 12.5321 18.494 12.0881 17.714C11.6561 16.934 11.4401 16.034 11.4401 15.014C11.4401 13.994 11.6621 13.094 12.1061 12.314C12.5621 11.534 13.1801 10.934 13.9601 10.514C14.7401 10.082 15.6101 9.866 16.5701 9.866C17.5301 9.866 18.4001 10.082 19.1801 10.514C19.9601 10.934 20.5721 11.534 21.0161 12.314C21.4721 13.094 21.7001 13.994 21.7001 15.014C21.7001 16.034 21.4661 16.934 20.9981 17.714C20.5421 18.494 19.9181 19.1 19.1261 19.532C18.3461 19.952 17.4701 20.162 16.4981 20.162ZM16.4981 17.966C16.9541 17.966 17.3801 17.858 17.7761 17.642C18.1841 17.414 18.5081 17.078 18.7481 16.634C18.9881 16.19 19.1081 15.65 19.1081 15.014C19.1081 14.066 18.8561 13.34 18.3521 12.836C17.8601 12.32 17.2541 12.062 16.5341 12.062C15.8141 12.062 15.2081 12.32 14.7161 12.836C14.2361 13.34 13.9961 14.066 13.9961 15.014C13.9961 15.962 14.2301 16.694 14.6981 17.21C15.1781 17.714 15.7781 17.966 16.4981 17.966ZM32.9626 10.028V20H30.4246V18.74C30.1006 19.172 29.6746 19.514 29.1466 19.766C28.6306 20.006 28.0666 20.126 27.4546 20.126C26.6746 20.126 25.9846 19.964 25.3846 19.64C24.7846 19.304 24.3106 18.818 23.9626 18.182C23.6266 17.534 23.4586 16.766 23.4586 15.878V10.028H25.9786V15.518C25.9786 16.31 26.1766 16.922 26.5726 17.354C26.9686 17.774 27.5086 17.984 28.1926 17.984C28.8886 17.984 29.4346 17.774 29.8306 17.354C30.2266 16.922 30.4246 16.31 30.4246 15.518V10.028H32.9626ZM37.969 11.576C38.293 11.048 38.713 10.634 39.229 10.334C39.757 10.034 40.357 9.884 41.029 9.884V12.53H40.363C39.571 12.53 38.971 12.716 38.563 13.088C38.167 13.46 37.969 14.108 37.969 15.032V20H35.449V10.028H37.969V11.576ZM46.5424 20.162C45.7264 20.162 44.9944 20.018 44.3464 19.73C43.6984 19.43 43.1824 19.028 42.7984 18.524C42.4264 18.02 42.2224 17.462 42.1864 16.85H44.7244C44.7724 17.234 44.9584 17.552 45.2824 17.804C45.6184 18.056 46.0324 18.182 46.5244 18.182C47.0044 18.182 47.3764 18.086 47.6404 17.894C47.9164 17.702 48.0544 17.456 48.0544 17.156C48.0544 16.832 47.8864 16.592 47.5504 16.436C47.2264 16.268 46.7044 16.088 45.9844 15.896C45.2404 15.716 44.6284 15.53 44.1484 15.338C43.6804 15.146 43.2724 14.852 42.9244 14.456C42.5884 14.06 42.4204 13.526 42.4204 12.854C42.4204 12.302 42.5764 11.798 42.8884 11.342C43.2124 10.886 43.6684 10.526 44.2564 10.262C44.8564 9.998 45.5584 9.866 46.3624 9.866C47.5504 9.866 48.4984 10.166 49.2064 10.766C49.9144 11.354 50.3044 12.152 50.3764 13.16H47.9644C47.9284 12.764 47.7604 12.452 47.4604 12.224C47.1724 11.984 46.7824 11.864 46.2904 11.864C45.8344 11.864 45.4804 11.948 45.2284 12.116C44.9884 12.284 44.8684 12.518 44.8684 12.818C44.8684 13.154 45.0364 13.412 45.3724 13.592C45.7084 13.76 46.2304 13.934 46.9384 14.114C47.6584 14.294 48.2524 14.48 48.7204 14.672C49.1884 14.864 49.5904 15.164 49.9264 15.572C50.2744 15.968 50.4544 16.496 50.4664 17.156C50.4664 17.732 50.3044 18.248 49.9804 18.704C49.6684 19.16 49.2124 19.52 48.6124 19.784C48.0244 20.036 47.3344 20.162 46.5424 20.162ZM61.805 14.798C61.805 15.158 61.781 15.482 61.733 15.77H54.443C54.503 16.49 54.755 17.054 55.199 17.462C55.643 17.87 56.189 18.074 56.837 18.074C57.773 18.074 58.439 17.672 58.835 16.868H61.553C61.265 17.828 60.713 18.62 59.897 19.244C59.081 19.856 58.079 20.162 56.891 20.162C55.931 20.162 55.067 19.952 54.299 19.532C53.543 19.1 52.949 18.494 52.517 17.714C52.097 16.934 51.887 16.034 51.887 15.014C51.887 13.982 52.097 13.076 52.517 12.296C52.937 11.516 53.525 10.916 54.281 10.496C55.037 10.076 55.907 9.866 56.891 9.866C57.839 9.866 58.685 10.07 59.429 10.478C60.185 10.886 60.767 11.468 61.175 12.224C61.595 12.968 61.805 13.826 61.805 14.798ZM59.195 14.078C59.183 13.43 58.949 12.914 58.493 12.53C58.037 12.134 57.479 11.936 56.819 11.936C56.195 11.936 55.667 12.128 55.235 12.512C54.815 12.884 54.557 13.406 54.461 14.078H59.195ZM65.3903 7.454V15.392C65.3903 16.508 65.6603 17.336 66.2003 17.876C66.7523 18.416 67.5143 18.686 68.4863 18.686C69.4463 18.686 70.1963 18.416 70.7363 17.876C71.2883 17.336 71.5643 16.508 71.5643 15.392V7.454H73.2023V15.374C73.2023 16.418 72.9923 17.3 72.5723 18.02C72.1523 18.728 71.5823 19.256 70.8623 19.604C70.1543 19.952 69.3563 20.126 68.4683 20.126C67.5803 20.126 66.7763 19.952 66.0563 19.604C65.3483 19.256 64.7843 18.728 64.3643 18.02C63.9563 17.3 63.7523 16.418 63.7523 15.374V7.454H65.3903ZM77.5728 7.454V20H75.9348V7.454H77.5728Z" fill="white"/>
<rect x="79" y="42" width="26.15" height="2" fill="white"/>
</svg>
