<svg width="120" height="31" viewBox="0 0 120 31" fill="none" xmlns="http://www.w3.org/2000/svg">
<path d="M4.10027 7.48528V14.9727C4.10027 15.7215 4.28448 16.2979 4.65291 16.702C5.02134 17.106 5.5621 17.3081 6.27519 17.3081C6.98828 17.3081 7.53498 17.106 7.9153 16.702C8.29561 16.2979 8.48577 15.7215 8.48577 14.9727V7.48528H11.5342V14.9549C11.5342 16.0721 11.2965 17.0169 10.8211 17.7894C10.3457 18.5619 9.70396 19.1443 8.89579 19.5365C8.09951 19.9287 7.20815 20.1248 6.22171 20.1248C5.23527 20.1248 4.34985 19.9346 3.56545 19.5543C2.79293 19.1621 2.18087 18.5798 1.72924 17.8072C1.27762 17.0229 1.05181 16.0721 1.05181 14.9549V7.48528H4.10027ZM16.7233 7.48528V20H13.6749V7.48528H16.7233ZM26.5982 20L24.0489 16.1671L21.8027 20H18.3442L22.3554 13.6357L18.2551 7.48528H21.8027L24.3164 11.2647L26.5269 7.48528H29.9854L26.0099 13.7961L30.1459 20H26.5982ZM31.0329 15.072C31.0329 14.1013 31.2429 13.238 31.6629 12.482C32.0829 11.7167 32.6663 11.124 33.4129 10.704C34.1689 10.2747 35.0229 10.06 35.9749 10.06C37.1416 10.06 38.1403 10.368 38.9709 10.984C39.8016 11.6 40.3569 12.44 40.6369 13.504H38.0049C37.8089 13.0933 37.5289 12.7807 37.1649 12.566C36.8103 12.3513 36.4043 12.244 35.9469 12.244C35.2096 12.244 34.6123 12.5007 34.1549 13.014C33.6976 13.5273 33.4689 14.2133 33.4689 15.072C33.4689 15.9307 33.6976 16.6167 34.1549 17.13C34.6123 17.6433 35.2096 17.9 35.9469 17.9C36.4043 17.9 36.8103 17.7927 37.1649 17.578C37.5289 17.3633 37.8089 17.0507 38.0049 16.64H40.6369C40.3569 17.704 39.8016 18.544 38.9709 19.16C38.1403 19.7667 37.1416 20.07 35.9749 20.07C35.0229 20.07 34.1689 19.86 33.4129 19.44C32.6663 19.0107 32.0829 18.418 31.6629 17.662C31.2429 16.906 31.0329 16.0427 31.0329 15.072ZM46.751 20.098C45.827 20.098 44.9777 19.8833 44.203 19.454C43.4377 19.0247 42.8263 18.4273 42.369 17.662C41.921 16.8873 41.697 16.0193 41.697 15.058C41.697 14.0967 41.921 13.2333 42.369 12.468C42.8263 11.7027 43.4377 11.1053 44.203 10.676C44.9777 10.2467 45.827 10.032 46.751 10.032C47.675 10.032 48.5197 10.2467 49.285 10.676C50.0597 11.1053 50.6663 11.7027 51.105 12.468C51.553 13.2333 51.777 14.0967 51.777 15.058C51.777 16.0193 51.553 16.8873 51.105 17.662C50.657 18.4273 50.0503 19.0247 49.285 19.454C48.5197 19.8833 47.675 20.098 46.751 20.098ZM46.751 17.914C47.535 17.914 48.1603 17.6527 48.627 17.13C49.103 16.6073 49.341 15.9167 49.341 15.058C49.341 14.19 49.103 13.4993 48.627 12.986C48.1603 12.4633 47.535 12.202 46.751 12.202C45.9577 12.202 45.323 12.4587 44.847 12.972C44.3803 13.4853 44.147 14.1807 44.147 15.058C44.147 15.926 44.3803 16.6213 44.847 17.144C45.323 17.6573 45.9577 17.914 46.751 17.914ZM55.4609 10.172V16.052C55.4609 16.64 55.6055 17.0927 55.8949 17.41C56.1842 17.7273 56.6089 17.886 57.1689 17.886C57.7289 17.886 58.1582 17.7273 58.4569 17.41C58.7555 17.0927 58.9049 16.64 58.9049 16.052V10.172H61.2989V16.038C61.2989 16.9153 61.1122 17.6573 60.7389 18.264C60.3655 18.8707 59.8615 19.328 59.2269 19.636C58.6015 19.944 57.9015 20.098 57.1269 20.098C56.3522 20.098 55.6569 19.9487 55.0409 19.65C54.4342 19.342 53.9535 18.8847 53.5989 18.278C53.2442 17.662 53.0669 16.9153 53.0669 16.038V10.172H55.4609ZM67.992 20L65.948 16.29H65.374V20H62.9799V10.172H66.998C67.7726 10.172 68.4306 10.3073 68.972 10.578C69.5226 10.8487 69.9333 11.222 70.204 11.698C70.4746 12.1647 70.61 12.6873 70.61 13.266C70.61 13.9193 70.4233 14.5027 70.05 15.016C69.686 15.5293 69.1446 15.8933 68.426 16.108L70.694 20H67.992ZM65.374 14.596H66.858C67.2966 14.596 67.6233 14.4887 67.838 14.274C68.062 14.0593 68.174 13.756 68.174 13.364C68.174 12.9907 68.062 12.6967 67.838 12.482C67.6233 12.2673 67.2966 12.16 66.858 12.16H65.374V14.596ZM75.6688 20.098C74.9501 20.098 74.3061 19.9813 73.7368 19.748C73.1674 19.5147 72.7101 19.1693 72.3648 18.712C72.0288 18.2547 71.8514 17.704 71.8328 17.06H74.3808C74.4181 17.424 74.5441 17.704 74.7588 17.9C74.9734 18.0867 75.2534 18.18 75.5988 18.18C75.9534 18.18 76.2334 18.1007 76.4388 17.942C76.6441 17.774 76.7468 17.5453 76.7468 17.256C76.7468 17.0133 76.6628 16.8127 76.4948 16.654C76.3361 16.4953 76.1354 16.3647 75.8928 16.262C75.6594 16.1593 75.3234 16.0427 74.8848 15.912C74.2501 15.716 73.7321 15.52 73.3308 15.324C72.9294 15.128 72.5841 14.8387 72.2948 14.456C72.0054 14.0733 71.8608 13.574 71.8608 12.958C71.8608 12.0433 72.1921 11.3293 72.8548 10.816C73.5174 10.2933 74.3808 10.032 75.4448 10.032C76.5274 10.032 77.4001 10.2933 78.0628 10.816C78.7254 11.3293 79.0801 12.048 79.1268 12.972H76.5368C76.5181 12.6547 76.4014 12.4073 76.1868 12.23C75.9721 12.0433 75.6968 11.95 75.3608 11.95C75.0714 11.95 74.8381 12.0293 74.6608 12.188C74.4834 12.3373 74.3948 12.5567 74.3948 12.846C74.3948 13.1633 74.5441 13.4107 74.8428 13.588C75.1414 13.7653 75.6081 13.9567 76.2428 14.162C76.8774 14.3767 77.3908 14.582 77.7828 14.778C78.1841 14.974 78.5294 15.2587 78.8188 15.632C79.1081 16.0053 79.2528 16.486 79.2528 17.074C79.2528 17.634 79.1081 18.1427 78.8188 18.6C78.5388 19.0573 78.1281 19.4213 77.5868 19.692C77.0454 19.9627 76.4061 20.098 75.6688 20.098ZM83.12 12.09V14.078H86.326V15.926H83.12V18.082H86.746V20H80.726V10.172H86.746V12.09H83.12Z" fill="white"/>
<rect x="6.74158" y="27.5555" width="24.9438" height="3.44444" fill="white"/>
</svg>
